:SAMPLES-PER-SECOND 30
:FULLY-SPECIFIED
:DEGREES
475
root  -77.0861 40.5224 -1.10278 178.639 66.014 174.513
RightUpLeg  -14.7162 -5.31156 -3.26734
RightLeg  13.634 23.2704 4.27447
RightFoot  -1.78077 -0.256657 2.91721
RightToes  3.49245e-010 0 -3.6325e-017
Spine  7.87693 -0.60133 6.52203
Spine1  -0.571233 -0.208364 -0.38959
HEad  -22.4862 -7.14957 0.297474
LeftShoulder1  -0.527698 4.90603 -31.4473
LeftArm  -0.988231 8.53773 -39.1239
LeftForeArm  24.5118 -23.0831 -3.7378
LeftHand  -0.033601 5.31773 1.19724
RightShoulder  -0.847076 -6.01899 27.0814
RightArm  8.5567 -2.60819 40.537
RightForeArm  11.3577 8.53901 5.03268
RightHand  -0.530844 7.92504 -4.90768
LeftUpLeg  -4.96899 -14.7119 3.91605
LeftLeg  15.1624 -0.497027 0.682606
LeftFoot  -12.1357 0.0475739 -3.8154
LeftToes  -5.6298e-010 8.41567e-011 -1.83319e-011
476
root  -77.5289 40.4582 -1.4423 -179.805 69.1134 175.904
RightUpLeg  -15.448 -4.80662 -2.7797
RightLeg  12.5846 25.752 4.07904
RightFoot  -1.29531 -0.387343 4.31378
RightToes  3.49245e-010 0 -3.6325e-017
Spine  8.40734 -0.402735 6.18
Spine1  -1.16318 -0.0950352 -0.0289042
HEad  -22.2045 -4.53463 0.447214
LeftShoulder1  -0.474295 4.80476 -30.3483
LeftArm  -2.818 8.19916 -38.4151
LeftForeArm  27.8871 -24.1637 -3.69522
LeftHand  -0.0297616 4.90088 1.03827
RightShoulder  -0.845656 -6.06157 26.4706
RightArm  6.37274 -2.66724 38.0743
RightForeArm  12.6527 6.55499 4.00365
RightHand  -0.0715791 7.26924 -1.06827
LeftUpLeg  -5.17617 -8.77187 4.3016
LeftLeg  12.9129 -7.02171 0.143779
LeftFoot  -11.0366 0.0783328 -4.09508
LeftToes  -5.6298e-010 8.41567e-011 -1.83319e-011
477
root  -78.0261 40.4 -1.79821 -178.363 71.9051 177.458
RightUpLeg  -15.8116 -4.34532 -2.53578
RightLeg  11.3925 27.8112 3.72699
RightFoot  -1.25891 -0.609289 6.78064
RightToes  3.49245e-010 0 -3.6325e-017
Spine  8.96209 -0.193067 5.31498
Spine1  -0.873777 -0.0719422 0.908146
HEad  -22.7425 -3.99826 0.0227
LeftShoulder1  -0.511556 4.93529 -29.4709
LeftArm  -3.99086 6.89045 -37.3855
LeftForeArm  30.0682 -24.3084 -3.6231
LeftHand  -0.0284896 5.04558 0.75689
RightShoulder  -0.781771 -5.9651 25.1045
RightArm  4.65995 -2.03485 35.2952
RightForeArm  11.6531 5.15255 3.25276
RightHand  -0.111441 8.85918 -1.27239
LeftUpLeg  -5.25253 -3.58482 4.53158
LeftLeg  12.9343 -8.96639 -0.568465
LeftFoot  -11.7363 0.0572903 -2.81269
LeftToes  -5.6298e-010 8.41567e-011 -1.83319e-011
478
root  -78.5076 40.4554 -2.12605 -179.179 74.5196 177.184
RightUpLeg  -15.0523 -4.02026 -2.86632
RightLeg  8.92967 29.7905 2.44873
RightFoot  -1.20666 -0.848873 9.49335
RightToes  3.49245e-010 0 -3.6325e-017
Spine  9.94551 -0.152789 3.83603
Spine1  -1.02047 -0.0503699 0.746464
HEad  -24.0357 -5.02339 -0.676031
LeftShoulder1  -0.350586 4.56141 -27.0375
LeftArm  -5.38392 6.68356 -36.3796
LeftForeArm  30.7384 -23.4879 -3.43764
LeftHand  -0.0275597 5.60125 0.780225
RightShoulder  -0.582223 -5.3855 24.1878
RightArm  1.97065 -1.687 32.0698
RightForeArm  9.56523 3.60478 2.10313
RightHand  -0.272883 9.48863 -2.53262
LeftUpLeg  -4.52751 0.454144 3.57584
LeftLeg  12.336 -9.70088 -0.397948
LeftFoot  -10.7374 0.0717659 -1.11763
LeftToes  -5.6298e-010 8.41567e-011 -1.83319e-011
479
root  -78.9972 40.4351 -2.43038 -179.677 76.5177 176.847
RightUpLeg  -15.2597 -3.58404 -3.09677
RightLeg  7.74432 30.164 1.36606
RightFoot  -2.0135 -0.922132 11.0848
RightToes  3.49245e-010 0 -3.6325e-017
Spine  10.2863 -0.225186 1.86374
Spine1  -0.754037 -0.421092 1.83799
HEad  -23.7891 -2.35873 0.413863
LeftShoulder1  -0.307884 4.49448 -24.7538
LeftArm  -5.9165 6.42782 -34.545
LeftForeArm  29.9888 -21.9594 -3.48088
LeftHand  -0.0263793 4.86389 -0.128375
RightShoulder  -0.473148 -5.11808 22.4103
RightArm  -0.910988 -0.837028 29.7174
RightForeArm  8.55671 3.14957 0.951922
RightHand  -0.228288 8.33933 -2.30194
LeftUpLeg  -5.01972 1.65622 3.10308
LeftLeg  12.9932 -9.09929 -0.801955
LeftFoot  -10.7158 0.0678798 -0.631947
LeftToes  -5.6298e-010 8.41567e-011 -1.83319e-011
